<?xml version="1.0" encoding="UTF-8"?>
<svg width="90px" height="90px" viewBox="0 0 90 90" version="1.1" xmlns="http://www.w3.org/2000/svg" xmlns:xlink="http://www.w3.org/1999/xlink">
    <!-- Generator: Sketch 57 (83077) - https://sketch.com -->
    <title>MAI-LOGO</title>
    <desc>Created with Sketch.</desc>
    <g id="Desktop" stroke="none" stroke-width="1" fill="none" fill-rule="evenodd">
        <g id="Desktop-Web-Ui" transform="translate(-1289.000000, -59.000000)">
            <g id="MAI-LOGO" transform="translate(1289.000000, 59.000000)">
                <circle id="Oval" stroke="#A3F7BF" stroke-width="8" fill="#A3F7BF" fill-rule="evenodd" cx="45" cy="45" r="41"></circle>
                <path d="M54.4736842,25.3125 L62.7631579,25.3125 C64.8496241,25.3125 65.9210526,26.4538043 65.9774436,28.5652174 L67.5,64.6875 L59.3796992,64.6875 L58.0827068,32.1032609 L57.1240602,32.1032609 L51.2593985,56.4701087 C50.8646617,58.3532609 49.6804511,59.2663043 47.7631579,59.2663043 L42.1240602,59.2663043 C40.2067669,59.2663043 39.0225564,58.3532609 38.6278195,56.4701087 L32.7067669,32.1032609 L31.7481203,32.1032609 L30.6203008,64.6875 L22.5,64.6875 L23.9097744,28.5652174 C24.0225564,26.4538043 25.037594,25.3125 27.1240602,25.3125 L35.4135338,25.3125 C37.2744361,25.3125 38.4022556,26.2826087 38.7969925,28.1086957 L43.5338346,47.7391304 C43.9849624,49.6222826 44.2669173,51.4483696 44.5488722,53.2744565 L45.2819549,53.2744565 C45.6203008,51.4483696 45.9022556,49.6222826 46.2969925,47.7391304 L50.9774436,28.1086957 C51.4285714,26.2826087 52.556391,25.3125 54.4736842,25.3125 Z" id="M" fill="#29A19C" fill-rule="nonzero" transform="translate(45.000000, 45.000000) rotate(12.000000) translate(-45.000000, -45.000000) "></path>
            </g>
        </g>
    </g>
</svg>